<?xml version="1.0" encoding="utf-8"?>
<!-- Generator: Adobe Illustrator 23.1.0, SVG Export Plug-In . SVG Version: 6.00 Build 0)  -->
<svg version="1.1" id="Layer_1" xmlns="http://www.w3.org/2000/svg" xmlns:xlink="http://www.w3.org/1999/xlink" x="0px" y="0px"
	 viewBox="0 0 60 60" style="enable-background:new 0 0 60 60;" xml:space="preserve">
<style type="text/css">
	.st0{fill:#FDB515;}
	.st1{fill:#03636D;}
</style>
<g>
	<path class="st0" d="M22.38,3.75L22.35,3.8V3.75L22.38,3.75c-0.16-0.09-0.27-0.25-0.27-0.45c0-0.28,0.23-0.5,0.5-0.5
		c0.28,0,0.5,0.22,0.5,0.5c0,0.19-0.11,0.36-0.26,0.44h0.02v0.04l-0.02-0.04c-0.07,0.04-0.15,0.06-0.24,0.06
		C22.53,3.81,22.45,3.79,22.38,3.75z"/>
	<path class="st1" d="M24.56,14.74h-3.82c0,0,0.49-0.88-1.33-5.31l2.95-5.63v4.07c-0.57,0.12-0.99,0.62-0.99,1.23
		c0,0.69,0.56,1.25,1.25,1.25c0.69,0,1.25-0.56,1.25-1.25c0-0.6-0.43-1.11-0.99-1.23V3.79l2.95,5.54
		C25.83,9.34,24.15,13.57,24.56,14.74z"/>
	<rect x="20.27" y="15.09" class="st1" width="4.69" height="1.07"/>
	<path class="st1" d="M20.16,16.44h4.9c-0.09,0.22-0.42,7.29-0.74,14.51c-0.42,0.23-2.74,1.5-3.32,1.83
		C20.69,24.82,20.16,16.44,20.16,16.44z"/>
	<polygon class="st0" points="36.33,55.14 38.35,55.14 37.35,57.05 	"/>
	<polygon class="st1" points="34.14,51.03 40.5,51.03 38.61,54.63 36.06,54.63 	"/>
	<path class="st1" d="M39.68,40.79c0.07,1.11,0.82,8.52,0.82,8.52h-6.37c0.81-4.7,1.42-17.55,1.54-20.11
		c0.31-0.17,2.19-1.18,3.33-1.94C39.21,32.39,39.5,37.68,39.68,40.79z"/>
	<rect x="34.14" y="49.6" class="st1" width="6.37" height="0.86"/>
	<path class="st0" d="M51.71,10.72c0,7.75-8.92,13.61-9.23,13.81c0,0,0,0,0,0h0c0,0,0,0,0,0c-0.37,0.29-0.74,0.55-1.1,0.8
		c-0.08,0.06-0.16,0.11-0.24,0.17c-0.7,0.48-1.34,0.88-1.89,1.2c-0.08,0.04-0.15,0.09-0.22,0.13c-0.01,0.01-0.02,0.01-0.02,0.01
		c0,0-2.66,1.58-3.3,1.92c-0.85,0.5-1.85,1.05-2.84,1.58c-0.07,0.04-0.14,0.08-0.2,0.11c-0.27,0.15-0.55,0.3-0.81,0.44
		c-1.92,1.02-3.53,1.84-3.53,1.84c-0.46,0.22-0.92,0.45-1.39,0.68c-0.94,0.47-1.88,0.97-2.77,1.45c0,0-2.4,1.35-3.03,1.69
		c-1.56,0.89-2.62,1.53-2.66,1.56c-4.04,2.19-6.14,5.29-6.14,5.29c-7.06,10.18,1.46,12.12,1.46,12.12
		c7.55,1.18,7.32-10.34,7.32-10.34c0.14-1.75,0.13-4.75,0.04-8.18c0.53-0.32,2.08-1.23,3-1.67c-0.25,5.93-0.46,10.95-0.46,10.95
		c-0.48,6.88-3.43,9.45-5.81,10.39c0,0,0,0,0,0c-0.76,0.3-1.45,0.43-2,0.49c-0.39,0.05-0.76,0.08-1.11,0.08
		c-2.05,0-3.19-0.8-3.19-0.8c-3.32-1.97-3.27-7.15-3.27-7.15c-0.07-4.07,2.24-7.53,4.55-9.97c2.27-2.4,4.55-3.79,4.55-3.79
		c0.83-0.64,2.14-1.46,3.62-2.31c0,0,2.65-1.49,3.29-1.83c0.91-0.49,1.81-0.96,2.62-1.39c2.13-1.11,3.74-1.9,3.74-1.9
		c0.32-0.16,0.72-0.37,1.18-0.62c0.07-0.04,0.15-0.08,0.22-0.12c0.06-0.03,0.12-0.07,0.19-0.1c0.4-0.22,0.82-0.45,1.26-0.7
		c0.08-0.04,0.16-0.09,0.24-0.13c0.69-0.38,1.41-0.79,2.09-1.18c0,0,2.4-1.4,3.04-1.74c0.01-0.01,0.03-0.01,0.04-0.02
		c0.08-0.04,0.15-0.09,0.21-0.12c0.04-0.02,0.08-0.05,0.11-0.07c0.03-0.02,0.06-0.03,0.09-0.05c0.08-0.05,0.13-0.07,0.13-0.07
		c0.48-0.31,0.94-0.61,1.38-0.91c0.06-0.04,0.12-0.08,0.18-0.12c0.08-0.06,0.17-0.12,0.25-0.18c0,0,0,0,0,0c0,0,0,0,0,0
		c0.14-0.08,0.29-0.16,0.42-0.24c3.73-2.65,5.99-5.12,5.99-5.12c1.05-1.51,1.75-2.84,2.19-4.01c0-0.03,0-0.07,0.01-0.1
		c0,0.03,0,0.07-0.01,0.1c2.34-6.21-2.78-7.87-3.55-8.08c-0.06-0.02-0.1-0.03-0.1-0.03c-1.95-0.3-3.38,0.24-4.42,1.21
		c-3.02,2.79-2.89,9.14-2.89,9.14c-0.14,1.77-0.13,4.81-0.04,8.28c-0.52,0.31-2.08,1.24-3.01,1.68c0.26-5.98,0.46-11.07,0.46-11.07
		c0.02-0.34,0.05-0.68,0.09-1c0.5-4.48,2.12-6.95,3.83-8.3c0.32-0.25,0.64-0.46,0.96-0.64h0c0,0,0.02-0.01,0.04-0.02
		c0.01-0.01,0.02-0.01,0.03-0.02c0.01,0,0.01-0.01,0.02-0.01c0,0,0.01-0.01,0.01-0.01c0.04-0.02,0.09-0.04,0.14-0.07
		c0.02-0.01,0.04-0.02,0.05-0.03c0.02-0.01,0.03-0.02,0.05-0.02c0.85-0.42,1.66-0.63,2.3-0.72c0.8-0.14,1.73-0.18,2.69,0.02
		c0,0,0.01,0,0.01,0c1.25,0.2,2.2,0.76,2.91,1.49c0,0,0.01,0.01,0.01,0.01C51.75,6.7,51.71,10.72,51.71,10.72z"/>
</g>
</svg>
