<?xml version="1.0" encoding="UTF-8"?>
<svg id="Layer_1" xmlns="http://www.w3.org/2000/svg" viewBox="0 0 99.28 99.28">
  <defs>
    <style>
      .cls-1 {
        fill: #fff;
      }

      .cls-2 {
        fill: #1f55bc;
      }
    </style>
  </defs>
  <circle class="cls-2" cx="49.64" cy="49.64" r="49.64"/>
  <g>
    <path class="cls-1" d="M42.27,48.48c-.13-.05-.31-.02-.37-.23,1.69-.64,3.11-1.68,4.2-3.12,1.82-2.39,2.45-5.1,2.12-8.06-.44-4-2.39-6.98-5.98-8.85-2.34-1.22-4.88-1.67-7.49-1.68-6.24-.02-12.48,0-18.71,0-.23,0-.46.01-.68.02-.24-.02-.29.07-.23.31.13.54.1,1.09.1,1.64,0,13.59,0,27.18,0,40.78,0,.66.07,1.33-.07,1.99-.04.19,0,.34.21.4,6.7,0,13.39,0,20.08,0,1.41,0,2.81-.1,4.19-.41,2.86-.64,5.37-1.9,7.29-4.17,2.43-2.88,3.21-6.28,2.63-9.93-.69-4.3-3.12-7.25-7.28-8.69ZM24.08,39.5c0-1.65,0-3.31,0-4.96,0-.3-.02-.56.42-.55,3.27.05,6.54-.11,9.81.1,1.47.09,2.85.52,3.92,1.61,2.68,2.77,1.36,7.73-2.37,9-.89.3-1.81.43-2.75.43-2.81.01-5.63,0-8.44.01-.49,0-.6-.16-.6-.62.02-1.67,0-3.35,0-5.02ZM35.42,64.2c-.3.03-.6.04-.91.06-.23-.02-.45-.05-.68-.05-2.95,0-5.89,0-8.84,0-.72,0-.75-.03-.75-.73,0-3.38,0-6.77,0-10.15,0-.74.02-.76.78-.76,2.98,0,5.97,0,8.96,0,.26,0,.53.03.79-.09,3.27.1,5.79,2.01,6.06,5.34.3,3.63-1.73,6.04-5.4,6.38Z"/>
    <path class="cls-1" d="M83.7,51.45c-.79-3.64-2.43-6.78-5.39-9.14-2.43-1.93-5.24-2.83-8.3-3.15-6.48-.69-12.65,2.66-15.55,8.49-1.83,3.68-2.21,7.56-1.55,11.56.77,4.65,2.96,8.5,7.06,10.95,5.77,3.45,11.72,3.37,17.57.16,3.12-1.71,5.19-4.4,6.25-7.83.12-.37.18-.58-.38-.57-2.61.03-5.21.02-7.82.01-.26,0-.45.02-.62.28-1.35,2.15-3.34,3.1-5.83,3.2-4.02.16-7.35-2.65-7.8-6.62-.06-.51.05-.68.61-.67,3.57.03,7.15.01,10.73.01s7.27,0,10.9,0c.31,0,.59.05.59-.44.02-2.09-.02-4.18-.47-6.24ZM74.56,52.25c-2.11,0-4.22,0-6.33,0h0c-2.07,0-4.14-.02-6.21.02-.55,0-.63-.18-.55-.66.49-2.96,2.92-5.27,5.92-5.54,1.37-.12,2.73-.01,4.03.5,2.27.89,3.45,3,3.63,5.29.04.44-.22.4-.49.4Z"/>
    <path class="cls-1" d="M58.05,34.59c6.85-.02,13.69-.01,20.54-.01.13,0,.27,0,.4,0,.24.01.35-.09.34-.34-.04-1.69.07-3.38-.06-5.07-.11-.2-.3-.12-.46-.12-6.88,0-13.76,0-20.63,0-.24,0-.5-.06-.71.13-.15.18-.09.4-.09.61,0,1.37.02,2.74-.01,4.11-.01.54.12.71.68.71Z"/>
  </g>
</svg>