<?xml version="1.0" encoding="UTF-8"?>
<svg id="Layer_1" xmlns="http://www.w3.org/2000/svg" viewBox="0 0 99.16 99.16">
  <defs>
    <style>
      .cls-1 {
        fill: #fff;
      }

      .cls-2 {
        fill: #0080ff;
      }
    </style>
  </defs>
  <path class="cls-2" d="M99.16,49.58C99.16,22.2,76.96,0,49.58,0S0,22.2,0,49.58c0,24.75,18.13,45.26,41.83,48.98v-34.64h-12.59v-14.33h12.59v-10.92c0-12.43,7.4-19.29,18.73-19.29,5.42,0,11.1.97,11.1.97v12.2h-6.25c-6.16,0-8.08,3.82-8.08,7.74v9.3h13.75l-2.2,14.33h-11.55v34.64c23.7-3.72,41.83-24.23,41.83-48.98Z"/>
  <path class="cls-1" d="M68.88,63.91l2.2-14.33h-13.75v-9.3c0-3.92,1.92-7.74,8.08-7.74h6.25v-12.2s-5.67-.97-11.1-.97c-11.32,0-18.73,6.86-18.73,19.29v10.92h-12.59v14.33h12.59v34.64c2.52.4,5.11.6,7.75.6s5.22-.21,7.75-.6v-34.64h11.55Z"/>
</svg>