<?xml version="1.0" encoding="UTF-8"?>
<svg id="Layer_1" xmlns="http://www.w3.org/2000/svg" viewBox="0 0 98.8 98.79">
  <defs>
    <style>
      .cls-1 {
        fill: #f1f2f2;
      }

      .cls-2 {
        fill: #007ab9;
      }
    </style>
  </defs>
  <circle class="cls-2" cx="49.4" cy="49.4" r="49.4" transform="translate(-10.73 84.97) rotate(-75.61)"/>
  <path class="cls-1" d="M78.91,53.37v20.37h-11.81v-19c0-4.77-1.7-8.03-5.98-8.03-3.26,0-5.2,2.19-6.06,4.32-.31.76-.39,1.81-.39,2.88v19.83h-11.81s.16-32.18,0-35.51h11.81v5.03s-.06.08-.08.12h.08v-.12c1.57-2.41,4.37-5.87,10.64-5.87,7.77,0,13.59,5.08,13.59,15.98h0ZM30.52,21.11c-4.04,0-6.68,2.65-6.68,6.13s2.57,6.14,6.53,6.14h.08c4.12,0,6.68-2.73,6.68-6.14-.08-3.48-2.56-6.13-6.6-6.13h0ZM24.54,73.74h11.8v-35.51h-11.8v35.51ZM24.54,73.74"/>
</svg>