<?xml version="1.0" encoding="UTF-8"?>
<svg xmlns="http://www.w3.org/2000/svg" version="1.1" viewBox="0 0 381.6 381.6">
  <defs>
    <style>
      .cls-1 {
        fill: #764aff;
      }
    </style>
  </defs>
  <!-- Generator: Adobe Illustrator 28.7.1, SVG Export Plug-In . SVG Version: 1.2.0 Build 142)  -->
  <g>
    <g id="Layer_1">
      <path class="cls-1" d="M191.1,0C85.7-.2,0,85.3,0,190.6c0,105.4,85.4,190.9,190.8,191,105.3,0,190.9-85.5,190.9-190.9C381.6,85.5,296.3.2,191.1,0ZM190.7,360.7c-93.9,0-169.9-76.2-169.8-170,0-93.9,76.2-169.9,170-169.8,93.9,0,169.9,76.1,169.8,170,0,93.9-76.1,169.9-170,169.8Z"/>
      <path class="cls-1" d="M263.7,179.4c-21.5-22-43-44.1-64.5-66.1-2.3-2.4-4.8-4.4-7.9-4.3-3.7,0-6.1,1.5-8.3,3.7-34.7,35.5-69.3,71-104,106.5-4.8,4.9-4.8,10.3-.2,15.2,4.3,4.5,8.7,8.9,13,13.4,2.2,2.3,4.9,3.3,8.1,3,3.3-.3,5.4-2.3,7.5-4.4,26.7-27.4,53.5-54.7,80.2-82.2,2.4-2.5,3.6-2.8,6.2-.1,26.7,27.6,53.6,55,80.4,82.5,5.8,6,10.8,6,16.7,0,3.6-3.6,7.1-7.3,10.7-11,6-6.3,6-11.2,0-17.4-12.6-12.9-25.3-25.9-37.9-38.8h0Z"/>
    </g>
  </g>
</svg>